<svg xmlns="http://www.w3.org/2000/svg" width="41" height="41" viewBox="0 0 41 41"><rect width="41" height="41" fill="#d7239d"/><path d="M20.33,24.56c0,3.23-2.72,4.62-5.61,4.62H7V13.26h7.51c2.72,0,5.09.78,5.09,4a3.41,3.41,0,0,1-2.18,3.32A3.84,3.84,0,0,1,20.33,24.56ZM10.5,19.7h3.55c1.25,0,2.13-.55,2.13-1.9S15.05,16,13.78,16H10.5Zm6.33,4.67c0-1.63-1-2.28-2.52-2.28H10.5v4.39h3.74C15.67,26.48,16.83,26,16.83,24.37Zm16-.19H24.53a2.61,2.61,0,0,0,2.83,2.93,2.65,2.65,0,0,0,2.51-1.5h2.79a5.14,5.14,0,0,1-5.4,3.87c-3.63,0-5.89-2.46-5.89-6.05a5.79,5.79,0,0,1,5.89-6.1c3.62,0,5.62,2.85,5.62,6.25C32.88,23.79,32.86,24,32.85,24.18Zm-9-8.51V14.1h6.46v1.57Zm5.8,6.51a2.36,2.36,0,0,0-2.52-2.46,2.47,2.47,0,0,0-2.63,2.46Z" fill="#f5f5f5"/></svg>